<svg width="281" height="93" viewBox="0 0 281 93" fill="none" xmlns="http://www.w3.org/2000/svg">
<path d="M84.9431 66.832C83.294 69.9644 81.0661 73.0659 78.2592 76.1365C75.4523 79.2071 72.2507 81.9686 68.6543 84.421C65.0579 86.8734 61.1371 88.8518 56.8918 90.3561C52.6465 91.8605 48.2608 92.6127 43.7346 92.6127C40.1909 92.6127 36.656 92.2418 33.1299 91.4999C29.6037 90.758 26.218 89.6246 22.9726 88.0996C19.7272 86.5746 16.7098 84.6478 13.9203 82.319C11.1309 79.9901 8.70116 77.239 6.63115 74.0655C4.56114 70.892 2.93845 67.2856 1.76308 63.2462C0.587709 59.2068 1.68413e-05 54.7142 0 49.7685C0 44.9462 0.605233 40.3713 1.8157 36.0436C3.02616 31.7159 4.71909 27.7076 6.89448 24.0188C9.06988 20.3301 11.6487 17.0019 14.631 14.0342C17.6132 11.0666 20.8762 8.5421 24.4199 6.46071C27.9636 4.37931 31.7003 2.78216 35.63 1.66924C39.5597 0.556326 43.5771 -8.70382e-05 47.6821 1.02122e-08C52.2082 1.02122e-08 56.4624 0.628546 60.4447 1.88564C64.4269 3.14273 67.9092 4.91503 70.8916 7.20256C73.874 9.49008 76.2336 12.231 77.9703 15.4253C79.7071 18.6196 80.5755 22.1745 80.5755 26.0899C80.5755 29.7169 79.8562 33.1687 78.4177 36.4454C76.9792 39.7221 75.0056 42.5969 72.4969 45.0698C69.9881 47.5428 67.0585 49.5006 63.7079 50.9432C60.3573 52.3859 56.7873 53.1072 52.9979 53.1071C49.9454 53.1071 47.2438 52.664 44.893 51.7779C42.5423 50.8917 40.5775 49.6655 38.9986 48.0993C37.4197 46.5332 36.2268 44.699 35.4199 42.5969C34.613 40.4949 34.2095 38.228 34.2094 35.7964C34.2094 33.7768 34.4814 31.9324 35.0252 30.2631C35.569 28.5939 36.1655 27.1616 36.8146 25.9664C37.4637 24.7712 38.0864 23.8232 38.6829 23.1225L39.6302 22.0097C39.8056 21.8036 40.0074 21.6696 40.2354 21.6078C40.4635 21.546 40.6828 21.5151 40.8933 21.5151C41.4547 21.5151 41.9283 21.7212 42.3143 22.1333C42.7002 22.5455 42.8932 23.1019 42.8932 23.8026C42.8932 24.5032 42.6651 25.1009 42.209 25.5955C42.1388 25.6367 41.8932 25.9149 41.4722 26.4301C41.0512 26.9453 40.5951 27.646 40.1039 28.5321C39.6127 29.4183 39.1653 30.4796 38.7618 31.7162C38.3583 32.9528 38.1566 34.3129 38.1566 35.7967C38.1566 38.146 38.6039 40.1244 39.4986 41.7318C40.3933 43.3393 41.5599 44.6478 42.9984 45.6576C44.4368 46.6673 46.0332 47.3886 47.7875 47.8214C49.5417 48.2542 51.296 48.4706 53.0503 48.4705C56.3133 48.4705 59.3745 47.8523 62.2341 46.6158C65.0936 45.3793 67.5934 43.7307 69.7337 41.6699C71.8739 39.6091 73.558 37.2391 74.7861 34.5601C76.0141 31.881 76.6281 29.0783 76.6281 26.1518C76.6281 22.937 75.8562 20.0003 74.3124 17.3419C72.7686 14.6835 70.681 12.4166 68.0496 10.5414C65.4182 8.6661 62.3394 7.21318 58.8133 6.1826C55.2872 5.15202 51.5242 4.63682 47.5243 4.637C44.5069 4.637 41.3404 5.05947 38.0247 5.9044C34.7091 6.74933 31.4373 8.01675 28.2094 9.70667C24.9814 11.3966 21.9027 13.4986 18.9731 16.0128C16.0435 18.5269 13.4735 21.4636 11.263 24.8227C9.05256 28.1819 7.28948 31.9429 5.97379 36.1058C4.6581 40.2687 4.00024 44.823 4.00021 49.7689C4.00021 54.2615 4.53527 58.3212 5.60539 61.9483C6.67551 65.5753 8.15791 68.8004 10.0526 71.6236C11.9472 74.4468 14.1664 76.8889 16.7101 78.9499C19.2538 81.0109 21.9906 82.7111 24.9203 84.0503C27.85 85.3896 30.9113 86.3788 34.104 87.0179C37.2968 87.657 40.4721 87.9764 43.63 87.9762C47.8403 87.9762 51.8927 87.2858 55.7873 85.905C59.6818 84.5243 63.2869 82.7107 66.6026 80.4644C69.9183 78.218 72.8568 75.6935 75.418 72.8908C77.9793 70.0882 80.0142 67.2649 81.5229 64.4209C81.6983 64.0499 81.9439 63.7717 82.2597 63.5862C82.5755 63.4008 82.9088 63.308 83.2596 63.308C83.8561 63.308 84.3298 63.545 84.6806 64.019C85.0315 64.493 85.2069 65.0185 85.2069 65.5955C85.2069 65.8016 85.1894 66.0077 85.1543 66.2138C85.1192 66.4198 85.049 66.6259 84.9438 66.832L84.9431 66.832ZM131.047 72.5199C130.907 72.8496 130.617 73.54 130.179 74.591C129.74 75.642 129.179 76.8476 128.495 78.2078C127.811 79.568 127.012 80.99 126.1 82.4738C125.188 83.9576 124.17 85.3178 123.048 86.5543C121.925 87.7908 120.714 88.8109 119.416 89.6146C118.118 90.4183 116.75 90.8202 115.311 90.8202C113.276 90.8202 111.566 90.0577 110.18 88.5327C108.794 87.0077 107.785 85.0912 107.154 82.7831C105.961 85.1324 104.54 86.9974 102.891 88.3782C101.242 89.7589 99.5929 90.4493 97.9439 90.4493C96.6457 90.4493 95.4704 90.1711 94.4178 89.6146C93.3652 89.0582 92.4705 88.2751 91.7337 87.2653C90.9969 86.2555 90.4268 85.0706 90.0233 83.7106C89.6198 82.3505 89.418 80.8667 89.418 79.2591C89.418 76.0442 89.8829 73.2106 90.8127 70.7583C91.7425 68.3059 92.9267 66.2553 94.3653 64.6066C95.8039 62.9579 97.3915 61.7214 99.1282 60.8971C100.865 60.0728 102.54 59.6606 104.154 59.6606C105.242 59.6606 106.242 59.8358 107.154 60.1861C108.066 60.5364 108.847 60.9177 109.496 61.3298C110.145 61.742 110.645 62.113 110.996 62.4427L111.575 63.0609C111.961 63.5967 112.154 64.1634 112.154 64.7611C112.154 65.3587 111.961 65.8945 111.575 66.3685C111.189 66.8425 110.724 67.0795 110.18 67.0795C109.636 67.0795 109.171 66.8528 108.786 66.3994L108.312 65.9048C108.066 65.6987 107.733 65.4721 107.312 65.2248C106.891 64.9775 106.391 64.7611 105.812 64.5756C105.233 64.3901 104.575 64.2974 103.838 64.2974C102.751 64.2974 101.593 64.5859 100.365 65.1629C99.1369 65.74 98.0142 66.6364 96.9967 67.8523C95.9792 69.0682 95.1283 70.5931 94.4442 72.4272C93.76 74.2613 93.4179 76.4354 93.4179 78.9495C93.4179 79.7326 93.4881 80.5261 93.6284 81.3298C93.7688 82.1335 94.0144 82.8651 94.3652 83.5245C94.7161 84.184 95.1897 84.7198 95.7862 85.132C96.3826 85.5441 97.1195 85.7502 97.9966 85.7502C98.6282 85.7502 99.3562 85.5029 100.181 85.0083C101.005 84.5137 101.795 83.7512 102.549 82.7208C103.303 81.6904 103.988 80.392 104.602 78.8258C105.216 77.2595 105.645 75.4048 105.891 73.2616C105.961 72.6846 106.189 72.2003 106.575 71.8088C106.961 71.4172 107.408 71.2214 107.917 71.2214C108.426 71.2214 108.865 71.4481 109.233 71.9015C109.601 72.3548 109.803 72.8701 109.838 73.4471C109.873 74.2302 109.943 75.3327 110.049 76.7547C110.154 78.1766 110.391 79.5883 110.759 80.9896C111.128 82.391 111.68 83.6069 112.417 84.6371C113.154 85.6674 114.171 86.1826 115.469 86.1827C116.311 86.1827 117.145 85.9148 117.969 85.379C118.794 84.8432 119.601 84.1322 120.39 83.2461C121.18 82.3599 121.934 81.3501 122.653 80.2167C123.372 79.0833 124.03 77.9395 124.627 76.7854C125.223 75.6313 125.75 74.5185 126.206 73.4469L127.364 70.6648C127.539 70.2114 127.793 69.8611 128.127 69.6138C128.46 69.3665 128.82 69.2428 129.206 69.2428C129.802 69.2428 130.284 69.5004 130.653 70.0156C131.021 70.5308 131.205 71.0769 131.205 71.654C131.205 71.9425 131.153 72.231 131.048 72.5195L131.047 72.5199ZM161.836 72.6433C161.625 73.0967 161.266 73.921 160.757 75.1163C160.248 76.3116 159.564 77.6614 158.704 79.1658C157.845 80.6702 156.818 82.2261 155.626 83.8335C154.433 85.4409 153.064 86.9144 151.521 88.254C149.977 89.5936 148.249 90.6961 146.337 91.5615C144.424 92.4269 142.346 92.8597 140.1 92.8598C138.1 92.8598 136.328 92.4374 134.785 91.5924C133.241 90.7475 131.925 89.5522 130.837 88.0067C129.75 86.4611 128.925 84.6373 128.364 82.5353C127.802 80.4333 127.522 78.1252 127.522 75.611C127.522 73.0968 127.82 70.7578 128.417 68.5939C129.013 66.4301 129.829 64.5444 130.864 62.937C131.899 61.3296 133.101 60.0622 134.469 59.1348C135.837 58.2073 137.293 57.7436 138.837 57.7437C139.995 57.7437 141.048 57.9807 141.995 58.4547C142.942 58.9287 143.74 59.5572 144.389 60.3403C145.039 61.1234 145.547 61.989 145.916 62.9369C146.284 63.8849 146.468 64.8226 146.468 65.7499C146.468 66.6773 146.372 67.5325 146.179 68.3156C145.986 69.0988 145.74 69.7891 145.442 70.3868C145.144 70.9844 144.802 71.4584 144.416 71.8087C144.03 72.1591 143.644 72.3342 143.258 72.3342C142.661 72.3342 142.179 72.1076 141.811 71.6542C141.442 71.2008 141.258 70.6444 141.258 69.9849C141.258 69.6552 141.328 69.3667 141.469 69.1194L141.89 68.3157C142.03 68.0684 142.161 67.7489 142.284 67.3574C142.407 66.9658 142.468 66.4609 142.468 65.8427C142.468 64.9772 142.126 64.194 141.442 63.4934C140.758 62.7927 139.907 62.4424 138.89 62.4424C137.872 62.4424 136.916 62.7927 136.021 63.4934C135.127 64.194 134.346 65.1317 133.679 66.3064C133.013 67.481 132.478 68.8618 132.074 70.4486C131.671 72.0354 131.469 73.6944 131.469 75.4256C131.469 77.1567 131.644 78.7848 131.995 80.3098C132.346 81.8348 132.872 83.1846 133.574 84.3593C134.276 85.5339 135.162 86.4716 136.232 87.1722C137.302 87.8729 138.574 88.2233 140.047 88.2233C141.942 88.2233 143.696 87.8214 145.31 87.0177C146.924 86.214 148.398 85.1939 149.731 83.9574C151.064 82.7209 152.24 81.3711 153.257 79.9079C154.275 78.4447 155.143 77.064 155.862 75.7657C156.582 74.4673 157.143 73.3339 157.546 72.3654C157.95 71.3969 158.187 70.7889 158.257 70.5416C158.397 70.1294 158.634 69.81 158.967 69.5833C159.301 69.3566 159.66 69.2433 160.046 69.2433C160.643 69.2433 161.125 69.4906 161.494 69.9852C161.862 70.4798 162.046 71.0362 162.046 71.6544C162.046 71.9017 161.976 72.2314 161.836 72.6436L161.836 72.6433ZM200.887 27.8821C200.887 28.5415 200.694 29.067 200.308 29.4586C199.922 29.8501 199.448 30.0459 198.887 30.0459H172.204V30.726C172.204 33.2402 172.046 35.9192 171.731 38.7631C171.415 41.607 170.985 44.4406 170.441 47.2638C169.897 50.087 169.283 52.8382 168.599 55.5173C167.915 58.1964 167.213 60.6694 166.494 62.9363C165.775 65.2033 165.064 67.1713 164.362 68.8404C163.661 70.5096 163.029 71.7563 162.468 72.5807C162.924 74.4766 163.468 76.2386 164.099 77.8666C164.731 79.4947 165.441 80.9167 166.231 82.1326C167.02 83.3486 167.871 84.3069 168.783 85.0075C169.696 85.708 170.678 86.0584 171.731 86.0585C172.959 86.0585 174.178 85.4505 175.388 84.2346C176.599 83.0188 177.722 81.5762 178.757 79.9069C179.792 78.2376 180.704 76.5477 181.493 74.8372C182.283 73.1267 182.853 71.7665 183.204 70.7567C183.555 69.7469 184.169 69.242 185.046 69.242C185.642 69.242 186.125 69.4893 186.493 69.9839C186.861 70.4785 187.046 71.0143 187.046 71.5913C187.046 71.8798 186.993 72.1683 186.888 72.4568L186.151 74.4352C185.73 75.4656 185.195 76.6609 184.546 78.021C183.897 79.3811 183.142 80.8134 182.283 82.3177C181.423 83.8221 180.458 85.1925 179.388 86.4289C178.318 87.6654 177.169 88.6958 175.941 89.5202C174.713 90.3445 173.415 90.7566 172.046 90.7566C169.626 90.7566 167.45 89.8293 165.52 87.9746C163.591 86.1198 161.95 83.5233 160.6 80.1848C159.249 76.8464 158.222 72.8897 157.521 68.3146C156.819 63.7395 156.468 58.7318 156.468 53.2913C156.468 51.9312 156.486 50.334 156.521 48.4999C156.556 46.6658 156.626 44.7287 156.731 42.6886C156.837 40.6484 156.994 38.5464 157.205 36.3825C157.415 34.2185 157.696 32.1061 158.047 30.0453H139.153C138.592 30.0453 138.118 29.8496 137.732 29.458C137.346 29.0665 137.153 28.5409 137.153 27.8815C137.153 27.222 137.346 26.6965 137.732 26.305C138.118 25.9134 138.592 25.7176 139.153 25.7176H158.942C159.293 24.2338 159.705 22.8737 160.179 21.6372C160.652 20.4007 161.196 19.3291 161.81 18.4224C162.424 17.5157 163.108 16.8048 163.863 16.2895C164.617 15.7742 165.442 15.5166 166.336 15.5167C167.231 15.5168 168.003 15.7744 168.652 16.2895C169.301 16.8046 169.854 17.5156 170.31 18.4224C170.766 19.3293 171.125 20.4008 171.389 21.6372C171.652 22.8736 171.854 24.2338 171.994 25.7177H198.887C199.449 25.7177 199.922 25.9135 200.308 26.3051C200.694 26.6966 200.887 27.2221 200.887 27.8816L200.887 27.8821ZM161.256 66.3993C162.309 63.679 163.265 60.7424 164.124 57.5893C164.984 54.4363 165.721 51.2523 166.335 48.0374C166.949 44.8225 167.422 41.6695 167.756 38.5783C168.089 35.4871 168.256 32.6432 168.256 30.0466H162.045C161.554 32.602 161.159 35.7653 160.861 39.5366C160.563 43.3079 160.414 47.8931 160.414 53.2925C160.414 56.3012 160.484 58.8257 160.624 60.8659C160.765 62.9061 160.975 64.7505 161.256 66.399L161.256 66.3993ZM166.15 20.1553C165.835 20.1553 165.379 20.5572 164.782 21.3609C164.186 22.1646 163.589 23.6175 162.993 25.7197H168.045C167.87 23.9886 167.615 22.6285 167.282 21.6393C166.949 20.6501 166.571 20.1555 166.15 20.1555L166.15 20.1553ZM162.098 70.8505V70.9123V70.8505ZM200.886 82.8445C199.658 85.1938 198.228 87.0485 196.596 88.4086C194.965 89.7688 193.325 90.4488 191.675 90.4488C190.342 90.4488 189.149 90.1603 188.097 89.5833C187.044 89.0063 186.132 88.1923 185.36 87.1413C184.588 86.0903 184 84.8228 183.597 83.339C183.193 81.8551 182.992 80.1859 182.992 78.3313C182.992 75.4462 183.229 72.8908 183.702 70.6651C184.176 68.4395 184.693 66.5744 185.255 65.07C185.816 63.5655 186.342 62.4218 186.834 61.6387L187.57 60.464C187.746 60.2167 187.965 60.0313 188.228 59.9076C188.491 59.784 188.763 59.7221 189.044 59.7221C189.605 59.7221 190.07 59.9591 190.439 60.4331C190.807 60.9071 190.991 61.4532 190.991 62.0715C190.991 62.3188 190.956 62.5661 190.886 62.8134L190.57 63.5553L189.728 65.2245C189.342 66.0076 188.939 67.0174 188.518 68.2539C188.097 69.4904 187.728 70.9433 187.413 72.6126C187.097 74.282 186.939 76.1882 186.939 78.3312C186.939 80.763 187.351 82.6074 188.176 83.8645C189 85.1216 190.167 85.7501 191.675 85.7501C192.307 85.7501 193.035 85.5131 193.86 85.0392C194.684 84.5652 195.491 83.8336 196.28 82.8444C197.07 81.8552 197.763 80.5981 198.359 79.0731C198.956 77.5482 199.342 75.7553 199.517 73.6945L200.307 63.0607C200.377 62.4424 200.605 61.9272 200.991 61.5151C201.377 61.1029 201.85 60.8968 202.412 60.8968C202.973 60.8968 203.429 61.1544 203.78 61.6696C204.131 62.1848 204.306 62.7721 204.306 63.4316L203.622 73.6945C203.552 74.56 203.578 75.6934 203.701 77.0948C203.824 78.4961 204.078 79.8769 204.464 81.237C204.85 82.5972 205.429 83.7615 206.201 84.73C206.973 85.6986 207.99 86.1829 209.253 86.1829C210.166 86.1829 211.06 85.9047 211.937 85.3483C212.815 84.7919 213.657 84.0603 214.464 83.1535C215.271 82.2468 216.016 81.2267 216.7 80.0932C217.385 78.9598 218.016 77.816 218.595 76.6619C219.174 75.5078 219.674 74.395 220.095 73.3234L221.148 70.665C221.323 70.2116 221.569 69.8612 221.884 69.6139C222.2 69.3666 222.551 69.243 222.937 69.243C223.569 69.243 224.06 69.4903 224.411 69.9849C224.761 70.4795 224.937 71.0153 224.937 71.5923C224.937 71.922 224.884 72.2312 224.779 72.5197L223.99 74.5598C223.569 75.6315 223.033 76.837 222.384 78.1766C221.735 79.5161 220.955 80.9278 220.042 82.4116C219.13 83.8954 218.113 85.2658 216.99 86.5228C215.867 87.7798 214.648 88.8102 213.332 89.614C212.017 90.4178 210.604 90.8196 209.096 90.8195C207.025 90.8195 205.306 90.1292 203.938 88.7484C202.57 87.3677 201.552 85.3997 200.885 82.8443L200.886 82.8445ZM226.674 64.3592C226.533 65.472 226.358 66.5127 226.147 67.4813C225.937 68.4499 225.735 69.2948 225.542 70.0161C225.349 70.7374 225.183 71.3247 225.042 71.7781C224.902 72.2315 224.814 72.4788 224.779 72.52C224.428 73.4679 223.814 73.9419 222.937 73.9419C222.446 73.9419 221.99 73.7255 221.569 73.2928C221.148 72.86 220.937 72.3139 220.937 71.6544C220.937 71.4071 220.972 71.2217 221.042 71.098C221.113 70.9744 221.218 70.7271 221.358 70.3561C221.499 69.9852 221.674 69.3669 221.884 68.5014C222.095 67.6358 222.358 66.2964 222.674 64.4829C222.077 64.4829 221.463 64.4623 220.832 64.4211C220.2 64.3799 219.613 64.2356 219.069 63.9883C218.525 63.741 218.078 63.3495 217.727 62.8137C217.376 62.2779 217.201 61.536 217.201 60.588C217.201 59.8873 217.367 58.9393 217.7 57.7441C218.034 56.5488 218.481 55.3741 219.043 54.22C219.604 53.0659 220.235 52.0664 220.937 51.2215C221.639 50.3766 222.341 49.9542 223.042 49.9541C223.849 49.9541 224.507 50.3045 225.016 51.0052C225.525 51.7058 225.919 52.5611 226.2 53.5709C226.481 54.5807 226.682 55.642 226.805 56.7549C226.928 57.8679 226.99 58.8364 226.99 59.6607L230.41 59.5989C232.41 59.5989 233.936 60.1141 234.989 61.1445C236.042 62.1749 236.568 63.8648 236.568 66.2142C236.568 67.1621 236.515 68.1513 236.41 69.1817C236.305 70.2121 236.182 71.2735 236.042 72.3658C235.901 73.4581 235.778 74.54 235.673 75.6116C235.568 76.6831 235.515 77.7342 235.515 78.7646C235.515 80.2484 235.691 81.4746 236.042 82.4432C236.392 83.4117 236.831 84.1845 237.357 84.7616C237.884 85.3386 238.445 85.7404 239.041 85.9671C239.638 86.1938 240.182 86.3072 240.673 86.3072C242.182 86.3072 243.603 85.7301 244.936 84.5761C246.269 83.422 247.497 82.0309 248.62 80.4028C249.743 78.7747 250.751 77.0539 251.646 75.2404C252.541 73.4269 253.286 71.8401 253.883 70.4799C254.058 70.109 254.304 69.8205 254.62 69.6144C254.935 69.4083 255.269 69.3053 255.619 69.3053C256.251 69.3053 256.742 69.5423 257.093 70.0163C257.444 70.4902 257.619 71.0158 257.619 71.5928C257.619 72.0049 257.549 72.3759 257.409 72.7056C256.602 74.3955 255.663 76.3017 254.593 78.4244C253.523 80.547 252.304 82.5357 250.936 84.3905C249.567 86.2453 248.032 87.8115 246.33 89.0892C244.629 90.3669 242.76 91.0057 240.725 91.0058C239.462 91.0058 238.269 90.7276 237.147 90.1711C236.024 89.6147 235.05 88.811 234.226 87.76C233.401 86.709 232.743 85.4106 232.252 83.865C231.761 82.3193 231.515 80.5779 231.515 78.6408C231.515 76.58 231.691 74.5295 232.042 72.4893C232.392 70.4491 232.568 68.5016 232.568 66.6469C232.568 65.8638 232.419 65.2765 232.121 64.8849C231.822 64.4934 231.164 64.2976 230.147 64.2976H228.568L226.674 64.3592ZM223.148 59.7839C223.148 59.4954 223.139 59.1142 223.121 58.6402C223.104 58.1662 223.069 57.7025 223.016 57.2491C222.963 56.7958 222.893 56.4042 222.806 56.0745C222.718 55.7448 222.621 55.5799 222.516 55.5799C222.411 55.5799 222.279 55.7344 222.121 56.0436C221.963 56.3527 221.797 56.7236 221.621 57.1564C221.446 57.5892 221.288 58.0528 221.148 58.5474C221.007 59.042 220.902 59.4542 220.832 59.7839H223.148L223.148 59.7839ZM262.409 41.2369C262.409 42.8031 261.944 44.1323 261.014 45.2246C260.084 46.3168 258.953 46.8629 257.619 46.8629C256.286 46.8629 255.155 46.3168 254.225 45.2246C253.295 44.1323 252.83 42.8031 252.83 41.2368C252.83 40.4537 252.953 39.7221 253.199 39.042C253.444 38.362 253.786 37.7643 254.225 37.2491C254.663 36.7339 255.172 36.332 255.751 36.0435C256.33 35.755 256.953 35.6108 257.619 35.6108C258.286 35.6108 258.909 35.755 259.488 36.0435C260.067 36.3321 260.575 36.7339 261.014 37.2491C261.453 37.7643 261.795 38.3619 262.04 39.042C262.286 39.7221 262.409 40.4537 262.409 41.2368L262.409 41.2369ZM253.883 77.4658C253.883 71.5307 254.199 65.6162 254.83 59.7223C254.9 59.1453 255.12 58.6404 255.488 58.2076C255.856 57.7748 256.321 57.5584 256.883 57.5584C257.444 57.5584 257.9 57.7954 258.251 58.2694C258.602 58.7434 258.777 59.2895 258.777 59.9078C258.777 60.1551 258.742 60.8969 258.672 62.1334L258.356 66.5229C258.216 68.254 258.102 70.0778 258.014 71.9943C257.926 73.9109 257.883 75.6728 257.883 77.2802C257.883 79.4647 258.067 81.2267 258.435 82.5662C258.804 83.9057 259.277 84.9464 259.856 85.6883C260.435 86.4302 261.049 86.9248 261.698 87.1721C262.347 87.4194 262.97 87.5431 263.567 87.5431C264.549 87.5431 265.566 87.1309 266.619 86.3066C267.672 85.4823 268.751 84.3281 269.856 82.8443C270.961 81.3604 272.075 79.5777 273.198 77.4963C274.32 75.4149 275.425 73.0965 276.513 70.541C276.689 70.1288 276.934 69.8094 277.25 69.5827C277.566 69.356 277.917 69.2427 278.303 69.2427C278.864 69.2427 279.329 69.49 279.697 69.9846C280.066 70.4792 280.25 71.015 280.25 71.592C280.25 72.0042 280.18 72.3545 280.039 72.643L278.461 76.1053C277.829 77.4655 277.11 78.8668 276.303 80.3094C275.496 81.7519 274.61 83.1842 273.645 84.6061C272.68 86.028 271.654 87.3057 270.566 88.4391C269.478 89.5725 268.338 90.4895 267.145 91.1902C265.953 91.8909 264.742 92.2413 263.514 92.2412C261.935 92.2412 260.549 91.8497 259.356 91.0666C258.163 90.2835 257.155 89.2325 256.33 87.9136C255.506 86.5946 254.892 85.0387 254.488 83.2459C254.085 81.453 253.883 79.5261 253.883 77.4652L253.883 77.4658ZM259.461 41.2369C259.461 40.6599 259.277 40.155 258.909 39.7222C258.54 39.2894 258.111 39.073 257.619 39.073C257.128 39.073 256.707 39.2894 256.356 39.7222C256.005 40.155 255.83 40.6599 255.83 41.2369C255.83 41.8139 256.005 42.3085 256.356 42.7207C256.707 43.1329 257.128 43.3389 257.619 43.3389C258.111 43.3389 258.54 43.1328 258.909 42.7207C259.277 42.3085 259.461 41.8139 259.461 41.2369V41.2369Z" fill="#125C13"/>
</svg>
